<?xml version="1.0" encoding="utf-8"?>
<!-- Generator: Adobe Illustrator 27.6.1, SVG Export Plug-In . SVG Version: 6.00 Build 0)  -->
<svg version="1.1" id="Слой_1" xmlns="http://www.w3.org/2000/svg" xmlns:xlink="http://www.w3.org/1999/xlink" x="0px" y="0px"
	 viewBox="0 0 500 500" style="enable-background:new 0 0 500 500;" xml:space="preserve">
<style type="text/css">
	.st0{fill:#202833;}
	.st1{fill:#FFFFFF;}
</style>
<path class="st0" d="M425.21,500H75.54c-41.51,0-75.17-33.65-75.17-75.17V75.17C0.37,33.65,34.03,0,75.54,0h349.67
	c41.51,0,75.17,33.65,75.17,75.17v349.67C500.37,466.35,466.72,500,425.21,500z"/>
<g>
	<g>
		<path class="st1" d="M270.1,275.82v3.81c0,2.54-2.11,4.65-4.65,4.65h-37.21c-5.5,0-9.72-4.65-9.72-10.15
			c0-2.11,0.85-3.81,2.11-5.5c0,0,26.21-32.98,30.02-38.05c0.42-0.42,0.42-0.85,0.42-1.27s0-0.85-0.42-1.27
			c-0.42-0.42-0.85-0.42-1.27-0.42h-32.56l0,0l-32.13,0.42h-15.64c-1.69,0-2.96-1.27-2.96-3.38v-6.77c0-1.69,1.27-3.38,2.96-3.38
			h90.91c5.07,0,8.88,4.23,8.88,8.88v3.81c0,0.85,0,1.27-0.42,2.11c-0.42,0.85-0.42,1.27-0.85,1.69l-30.02,37.63
			c-0.42,0.85,0,2.11,0.85,2.11h27.48C267.98,271.17,270.1,273.28,270.1,275.82z"/>
		<path class="st1" d="M216.82,272.43V283c0,0.85-0.42,1.27-1.27,1.27H172c-3.38,0-6.34-2.96-6.34-6.34v-3.38
			c0-2.11,0.85-3.81,2.11-5.5c0,0,27.48-34.67,30.44-38.48c0-0.42,0.42-0.42,0.85-0.42h14.8c0.85,0,1.27,0.85,0.85,1.27
			l-30.44,37.63c-0.42,0.85,0,2.11,0.85,2.11h30.87C216.4,271.17,216.82,271.59,216.82,272.43z"/>
	</g>
	<path class="st1" d="M128.03,247.06c0,1.27,0,2.96,0,4.23c0,9.3,1.27,18.18,4.23,26.64c0.42,1.27,0.85,2.96,1.27,4.23
		c8.88,24.95,28.75,44.4,53.27,53.27c1.27,0.42,2.96,0.85,4.23,1.27c8.46,2.54,17.34,4.23,26.64,4.23c1.27,0,2.96,0,4.23,0h0.42
		c2.11,0,4.23-0.42,6.34-0.42c0.85,0,1.27,0,2.11-0.42c0.85,0,1.69-0.42,2.11-0.42c3.38-0.42,6.77-1.27,10.15-2.54
		c0.85-0.42,1.69-0.42,2.54-0.85c26.64-8.88,47.78-30.02,56.66-56.66c0.42-0.85,0.42-1.69,0.85-2.54c0.85-3.38,1.69-6.77,2.54-10.15
		c0-0.85,0.42-1.69,0.42-2.11c0-0.85,0-1.27,0.42-2.11c0.42-2.11,0.42-4.23,0.42-6.34v-0.42c0-1.27,0-2.96,0-4.23
		c0-9.3-1.27-18.18-4.23-26.64c-0.42-1.27-0.85-2.96-1.27-4.23c-6.34-16.91-17.76-31.71-32.13-42.28c-3.81-2.54-2.11-8.88,2.54-8.88
		h61.31c1.69,0,2.96,0.85,3.81,2.11c14.8,22.41,23.68,49.47,23.68,78.64c0,0.42,0,0.85,0,0.85l0,0v117.97
		c0,13.11-10.57,23.68-23.68,23.68h-19.03c-5.92,0-10.99-4.65-10.99-10.57c0-6.34-5.07-10.99-10.57-10.99
		c-1.69,0-3.81,0.42-5.5,1.69c-22.41,13.11-48.62,20.72-76.53,19.87c-75.26-2.11-136.57-63.85-138.26-139.11
		c-1.69-80.34,62.58-145.87,142.49-145.87c2.54,0,4.65,0,6.77,0l0,0h123.89c7.19,0,12.68,5.92,12.68,12.68v27.91
		c0,7.19-5.92,12.68-12.68,12.68h-131.5c-1.27,0-2.96,0-4.23,0h-0.42c-2.11,0-4.23,0.42-6.34,0.42c-0.85,0-1.27,0-2.11,0.42
		c-0.85,0-1.69,0.42-2.11,0.42c-3.38,0.42-6.77,1.27-10.15,2.54c-0.85,0.42-1.69,0.42-2.54,0.85
		c-26.64,8.88-47.78,30.02-56.66,56.66c-0.42,0.85-0.42,1.69-0.85,2.54c-0.85,3.38-1.69,6.77-2.54,10.15c0,0.85-0.42,1.69-0.42,2.11
		c0,0.85,0,1.27-0.42,2.11C128.45,242.41,128.03,244.53,128.03,247.06L128.03,247.06z"/>
	<path class="st1" d="M426.12,117.68v35.09c0,5.07-3.81,9.3-8.46,9.3h-38.9c-4.65,0-8.46-4.23-8.46-9.3v-35.09
		c0-5.07,3.81-9.3,8.46-9.3h38.9C422.31,108.38,426.12,112.61,426.12,117.68z"/>
</g>
</svg>
